<svg width="99" height="81" viewBox="0 0 99 81" fill="none" xmlns="http://www.w3.org/2000/svg">
<path d="M75.1933 41.4262L69.9449 52.0273L58.2023 53.7327C56.0965 54.037 55.2526 56.6232 56.7797 58.1044L65.2752 66.3515L63.2658 78.0014C62.9041 80.1072 65.1305 81.6845 66.9952 80.6997L77.5 75.199L88.0048 80.6997C89.8695 81.6765 92.0959 80.1072 91.7342 78.0014L89.7248 66.3515L98.2203 58.1044C99.7474 56.6232 98.9035 54.037 96.7977 53.7327L85.0551 52.0273L79.8067 41.4262C78.8664 39.5366 76.1417 39.5126 75.1933 41.4262Z" fill="url(#paint0_linear_1_34)"/>
<path d="M47.837 7.04358L44.0533 14.8004L35.5877 16.0483C34.0696 16.271 33.4611 18.1633 34.5621 19.2472L40.6867 25.2816L39.2381 33.8059C38.9774 35.3467 40.5824 36.5009 41.9267 35.7803L49.5 31.7554L57.0733 35.7803C58.4176 36.495 60.0226 35.3467 59.7619 33.8059L58.3133 25.2816L64.4379 19.2472C65.5389 18.1633 64.9304 16.271 63.4123 16.0483L54.9467 14.8004L51.163 7.04358C50.485 5.66094 48.5207 5.64337 47.837 7.04358Z" fill="url(#paint1_linear_1_34)"/>
<path d="M9.81981 0.730508L7.13459 6.16031L1.12675 7.03383C0.0493653 7.18967 -0.38241 8.51431 0.398897 9.27301L4.74543 13.4971L3.7174 19.4641C3.53235 20.5427 4.67141 21.3506 5.62543 20.8462L11 18.0288L16.3746 20.8462C17.3286 21.3465 18.4677 20.5427 18.2826 19.4641L17.2546 13.4971L21.6011 9.27301C22.3824 8.51431 21.9506 7.18967 20.8733 7.03383L14.8654 6.16031L12.1802 0.730508C11.6991 -0.237341 10.305 -0.249644 9.81981 0.730508Z" fill="url(#paint2_linear_1_34)"/>
<defs>
<linearGradient id="paint0_linear_1_34" x1="77.5" y1="40" x2="77.5" y2="81" gradientUnits="userSpaceOnUse">
<stop stop-color="#F9DA3C"/>
<stop offset="1" stop-color="#FB7D36" stop-opacity="0.41"/>
</linearGradient>
<linearGradient id="paint1_linear_1_34" x1="49.5" y1="6" x2="49.5" y2="36" gradientUnits="userSpaceOnUse">
<stop stop-color="#F9DA3C"/>
<stop offset="1" stop-color="#FB7D36" stop-opacity="0.41"/>
</linearGradient>
<linearGradient id="paint2_linear_1_34" x1="11" y1="0" x2="11" y2="21" gradientUnits="userSpaceOnUse">
<stop stop-color="#F9DA3C"/>
<stop offset="1" stop-color="#FB7D36" stop-opacity="0.41"/>
</linearGradient>
</defs>
</svg>
